<svg width="22" height="22" viewBox="0 0 22 22" fill="none" xmlns="http://www.w3.org/2000/svg">
<path d="M19.9375 11C19.9375 9.23243 19.4134 7.50454 18.4314 6.03483C17.4495 4.56511 16.0537 3.41957 14.4208 2.74304C12.7878 2.06652 10.9909 1.8894 9.25721 2.23407C7.52356 2.57875 5.93105 3.42974 4.68103 4.67945C3.43101 5.92916 2.57962 7.52146 2.23451 9.25501C1.8894 10.9886 2.06607 12.7855 2.74219 14.4187C3.41831 16.0518 4.5635 17.4478 6.03297 18.4302C7.50244 19.4125 9.23019 19.9371 10.9978 19.9375H11L11.0022 19.9374C13.3714 19.9342 15.6425 18.9914 17.3176 17.316C18.9926 15.6405 19.9348 13.3692 19.9375 11ZM11.6875 18.5309V13.0626H13.75C13.9323 13.0626 14.1072 12.9902 14.2361 12.8612C14.3651 12.7323 14.4375 12.5574 14.4375 12.3751C14.4375 12.1928 14.3651 12.0179 14.2361 11.889C14.1072 11.76 13.9323 11.6876 13.75 11.6876H11.6875V9.62509C11.6879 9.26054 11.8329 8.91104 12.0907 8.65327C12.3485 8.3955 12.698 8.2505 13.0625 8.25009H14.4375C14.6198 8.25009 14.7947 8.17766 14.9236 8.04873C15.0526 7.91979 15.125 7.74493 15.125 7.56259C15.125 7.38025 15.0526 7.20539 14.9236 7.07645C14.7947 6.94752 14.6198 6.87509 14.4375 6.87509H13.0625C12.3334 6.87591 11.6344 7.1659 11.1189 7.68145C10.6033 8.197 10.3133 8.896 10.3125 9.62509V11.6876H8.25C8.06767 11.6876 7.8928 11.76 7.76387 11.889C7.63494 12.0179 7.5625 12.1928 7.5625 12.3751C7.5625 12.5574 7.63494 12.7323 7.76387 12.8612C7.8928 12.9902 8.06767 13.0626 8.25 13.0626H10.3125V18.5309C8.37444 18.354 6.57917 17.4367 5.30015 15.9699C4.02112 14.5031 3.35678 12.5997 3.44534 10.6556C3.53389 8.71148 4.36851 6.87634 5.77559 5.53189C7.18266 4.18745 9.05388 3.43719 11 3.43719C12.9461 3.43719 14.8173 4.18745 16.2244 5.53189C17.6315 6.87634 18.4661 8.71148 18.5547 10.6556C18.6432 12.5997 17.9789 14.5031 16.6999 15.9699C15.4208 17.4367 13.6256 18.354 11.6875 18.5309Z" fill="black"/>
</svg>
