<svg width="32" height="32" viewBox="0 0 32 32" fill="none" xmlns="http://www.w3.org/2000/svg">
<path d="M6.4 0C2.86523 0 0 2.80734 0 6.27068V25.0827C0 28.5461 2.86523 31.3535 6.4 31.3535H25.6C29.1343 31.3535 32 28.5461 32 25.0827V6.27068C32 2.80734 29.1348 0 25.6 0H6.4ZM6.4 0.964721H25.6C28.5908 0.964721 31.0154 3.34034 31.0154 6.27068V25.0827C31.0154 28.013 28.5908 30.3887 25.6 30.3887H6.4C3.40923 30.3887 0.984615 28.013 0.984615 25.0827V6.27068C0.984615 3.34034 3.40874 0.964721 6.4 0.964721ZM7.79615 2.4118C4.84969 2.4118 2.46154 4.7517 2.46154 7.63863V23.7138C2.46154 26.6007 4.84969 28.9417 7.79615 28.9417H24.2028C27.1493 28.9417 29.5385 26.6012 29.5385 23.7138V14.712C29.5385 14.5788 29.4282 14.4708 29.2923 14.4708C29.1564 14.4708 29.0462 14.5788 29.0462 14.712V23.7138C29.0462 26.3345 26.8775 28.4593 24.2028 28.4593H7.79712C5.12241 28.4593 2.95385 26.3345 2.95385 23.7138V7.63863C2.95385 5.01797 5.12144 2.89417 7.79615 2.89417H24.3692C24.5051 2.89417 24.6154 2.78612 24.6154 2.65298C24.6154 2.51985 24.5051 2.4118 24.3692 2.4118H7.79615ZM7.67404 8.68815C7.17486 8.68815 6.71724 8.8528 6.34231 9.12246C6.28974 9.14135 6.2453 9.17724 6.21634 9.22421C5.72738 9.63164 5.40961 10.2309 5.40961 10.9068V20.9403C5.40961 21.616 5.72676 22.2155 6.21538 22.6229C6.2454 22.675 6.29406 22.7142 6.35193 22.7332C6.72499 22.9983 7.1795 23.159 7.67404 23.159H24.3145C24.9404 23.159 25.5078 22.9076 25.9183 22.5033C25.9846 22.4726 26.0337 22.4146 26.0519 22.345C26.376 21.9611 26.5788 21.4757 26.5788 20.9403V10.9068C26.5788 10.3709 26.3755 9.88527 26.051 9.50118C26.0318 9.4395 25.9881 9.38793 25.9298 9.35798C25.5184 8.94606 24.9471 8.68814 24.3145 8.68814L7.67404 8.68815ZM29.2923 8.96135C29.1564 8.96135 29.0462 9.0694 29.0462 9.20253V10.1673C29.0462 10.3004 29.1564 10.4084 29.2923 10.4084C29.4282 10.4084 29.5385 10.3009 29.5385 10.1673V9.20253C29.5385 9.0694 29.4282 8.96135 29.2923 8.96135ZM7.67404 9.17051H24.3145C24.7573 9.17051 25.1563 9.33396 25.4663 9.5954L19.8693 15.8265C19.847 15.8442 19.8282 15.8656 19.8134 15.8896L18.6442 17.1906C17.2491 18.744 14.7804 18.7158 13.4222 17.1313L12.3644 15.8972C12.3503 15.8732 12.3321 15.8519 12.3105 15.8341C12.3099 15.8337 12.3093 15.8335 12.3087 15.8331L6.79808 9.40415C7.05703 9.25935 7.35343 9.17051 7.67404 9.17051ZM6.4048 9.6962L11.826 16.0197L6.41057 22.1566C6.09679 21.8436 5.90192 21.4156 5.90192 20.9403V10.9068C5.90192 10.4344 6.09438 10.0087 6.4048 9.6962ZM25.7972 9.95622C25.9793 10.2292 26.0865 10.5551 26.0865 10.9068V20.9403C26.0865 21.2967 25.977 21.6271 25.7904 21.9022L20.3558 16.0149L25.7972 9.95622ZM29.2923 10.8908C29.1564 10.8908 29.0462 10.9988 29.0462 11.132V13.0614C29.0462 13.1946 29.1564 13.3026 29.2923 13.3026C29.4282 13.3026 29.5385 13.1951 29.5385 13.0614V11.132C29.5385 10.9988 29.4282 10.8908 29.2923 10.8908ZM20.0279 16.3796L25.4567 22.2592C25.1479 22.5159 24.7529 22.6766 24.3145 22.6766H7.67403C7.3565 22.6766 7.06302 22.5889 6.80577 22.4468L12.1462 16.3937L13.0452 17.4422C14.5915 19.2459 17.4252 19.2774 19.0134 17.5092L20.0279 16.3796Z" fill="#3498DB"/>
</svg>
