<svg width="40" height="40" viewBox="0 0 40 40" fill="none" xmlns="http://www.w3.org/2000/svg">
<path d="M8 0.474609C3.58892 0.474609 0 3.97381 0 8.27461V31.6746C0 35.9754 3.58892 39.4746 8 39.4746H32C36.4111 39.4746 40 35.9754 40 31.6746V8.27461C40 3.97381 36.4111 0.474609 32 0.474609H8ZM8 1.67461H32C35.7323 1.67461 38.7692 4.63561 38.7692 8.27461V31.6746C38.7692 35.3136 35.7323 38.2746 32 38.2746H8C4.26769 38.2746 1.23077 35.3136 1.23077 31.6746V8.27461C1.23077 4.63561 4.26769 1.67461 8 1.67461ZM9.74639 3.47461C6.06886 3.47461 3.07692 6.39174 3.07692 9.97734V29.9719C3.07692 33.5575 6.06886 36.4746 9.74639 36.4746H30.2548C33.9323 36.4746 36.9231 33.5575 36.9231 29.9719V18.7746C36.9231 18.609 36.7852 18.4746 36.6154 18.4746C36.4455 18.4746 36.3077 18.609 36.3077 18.7746V29.9719C36.3077 33.2263 33.5927 35.8746 30.2548 35.8746H9.74639C6.40855 35.8746 3.69231 33.2263 3.69231 29.9719V9.97734C3.69231 6.72294 6.40855 4.07461 9.74639 4.07461H30.4615C30.6314 4.07461 30.7692 3.94021 30.7692 3.77461C30.7692 3.60901 30.6314 3.47461 30.4615 3.47461H9.74639ZM21.2091 10.0746C19.7057 10.0758 18.5414 10.4701 17.75 11.2453C16.9931 11.9869 16.6105 13.0225 16.6154 14.3227L16.9231 14.3566H16.6154V16.6746H15.0769C14.9071 16.6746 14.7692 16.809 14.7692 16.9746V19.9746C14.7692 20.1402 14.9071 20.2746 15.0769 20.2746H16.6154V29.5746C16.6154 29.7402 16.7532 29.8746 16.9231 29.8746H21.2308C21.4006 29.8746 21.5385 29.7402 21.5385 29.5746V20.2746H23.762C23.9128 20.2746 24.0409 20.1679 24.0649 20.0227C24.0674 20.0083 24.3068 18.5587 24.4207 16.9957C24.4268 16.9123 24.3956 16.8313 24.3377 16.7707C24.2799 16.7095 24.1985 16.6746 24.113 16.6746H20.9231V14.7551C20.9237 14.6045 21.2144 14.2746 21.5036 14.2746H24.3077C24.4775 14.2746 24.6154 14.1402 24.6154 13.9746V10.3746C24.6154 10.209 24.4775 10.0746 24.3077 10.0746H21.2091ZM21.2091 10.6746H24V13.6746H21.5036C20.9227 13.6746 20.3077 14.2301 20.3077 14.7551V16.9746C20.3077 17.1402 20.4449 17.2746 20.6154 17.2746H23.7812C23.6945 18.3054 23.5634 19.242 23.4976 19.6746H21.2308C21.0609 19.6746 20.9231 19.809 20.9231 19.9746V29.2746H17.2308V19.9746C17.2308 19.809 17.0929 19.6746 16.9231 19.6746H15.3846V17.2746H16.9231C17.0929 17.2746 17.2308 17.1402 17.2308 16.9746V14.3566V14.3203C17.2265 13.1851 17.5488 12.2941 18.1863 11.6695C18.8589 11.0107 19.875 10.6764 21.2091 10.6746ZM36.6154 12.4746C36.4455 12.4746 36.3077 12.609 36.3077 12.7746V13.9746C36.3077 14.1402 36.4455 14.2746 36.6154 14.2746C36.7852 14.2746 36.9231 14.1402 36.9231 13.9746V12.7746C36.9231 12.609 36.7852 12.4746 36.6154 12.4746ZM36.6154 14.8746C36.4455 14.8746 36.3077 15.009 36.3077 15.1746V17.5746C36.3077 17.7402 36.4455 17.8746 36.6154 17.8746C36.7852 17.8746 36.9231 17.7402 36.9231 17.5746V15.1746C36.9231 15.009 36.7852 14.8746 36.6154 14.8746Z" fill="#3498DB"/>
</svg>
