<svg width="40" height="40" viewBox="0 0 40 40" fill="none" xmlns="http://www.w3.org/2000/svg">
<path d="M20 0.474612C8.9609 0.474612 0 9.21149 0 19.9746C0 23.3904 0.918288 26.5959 2.50223 29.3884L0.0412942 38.0622C-0.18756 38.8695 0.62025 39.6576 1.44866 39.4333L10.346 37.0338C13.2103 38.5784 16.4969 39.4746 20 39.4746C31.0391 39.4746 40 30.7377 40 19.9746C40 9.21149 31.0391 0.474609 20 0.474609V0.474612ZM20 1.5889C30.4215 1.5889 38.8571 9.81367 38.8571 19.9746C38.8571 30.1355 30.4215 38.3603 20 38.3603C16.6085 38.3603 13.4327 37.4839 10.683 35.9566C10.5508 35.8834 10.3942 35.8646 10.2478 35.9043L1.14286 38.3592L3.66183 29.483C3.70223 29.3401 3.68255 29.1874 3.60714 29.0587C2.04121 26.3783 1.14286 23.2814 1.14286 19.9746C1.14286 9.81368 9.57853 1.5889 20 1.5889ZM20 4.37461C11.1667 4.37461 4 11.3622 4 19.9746C4 23.2515 5.04926 26.2871 6.82031 28.7975L5.37612 33.8901C5.34869 33.9868 5.37671 34.0904 5.44947 34.1614C5.52223 34.2323 5.6285 34.2596 5.72768 34.2329L10.9509 32.8248C13.5259 34.5521 16.6391 35.5746 20 35.5746C28.8333 35.5746 36 28.587 36 19.9746C36 15.6848 34.2221 11.7966 31.346 8.97648C31.2347 8.8671 31.0536 8.86637 30.9414 8.97485C30.8292 9.08333 30.8285 9.25993 30.9397 9.36931C33.7139 12.0894 35.4286 15.8348 35.4286 19.9746C35.4286 28.2859 28.5244 35.0175 20 35.0175C16.7073 35.0175 13.6605 34.01 11.1551 32.297C11.0853 32.2494 10.9973 32.2346 10.9152 32.2568L6.06138 33.5658L7.40402 28.8334C7.42673 28.7533 7.41158 28.6675 7.36272 28.5994C5.60587 26.1567 4.57143 23.1856 4.57143 19.9746C4.57143 11.6633 11.4755 4.93175 20 4.93175C21.4593 4.93175 22.8691 5.1337 24.2076 5.50304C24.3595 5.54511 24.5177 5.45912 24.5608 5.31098C24.604 5.16284 24.5158 5.00865 24.3638 4.96658C22.9766 4.58378 21.5133 4.37461 20 4.37461ZM25.9978 5.53242C25.8614 5.5329 25.7444 5.62726 25.7183 5.75777C25.6922 5.88828 25.7644 6.01856 25.8906 6.06889C26.4703 6.30283 27.0312 6.57138 27.5737 6.86978C27.6627 6.92494 27.7758 6.92773 27.8676 6.87704C27.9594 6.82635 28.0151 6.73044 28.0125 6.62758C28.0098 6.52473 27.9492 6.43167 27.8549 6.38555C27.2934 6.07666 26.7114 5.79716 26.1094 5.55419C26.074 5.53971 26.0361 5.53231 25.9978 5.53242ZM28.8583 7.03845C28.7318 7.03704 28.6194 7.1169 28.582 7.23474C28.5446 7.35258 28.5912 7.48036 28.6964 7.5488C29.0835 7.80679 29.4583 8.08081 29.8181 8.37037C29.9398 8.46833 30.12 8.45152 30.2204 8.33283C30.3209 8.21413 30.3037 8.0385 30.1819 7.94054C29.8079 7.63953 29.4182 7.35643 29.0179 7.08959C28.9711 7.05734 28.9155 7.03952 28.8583 7.03845ZM13.4319 11.0647C13.0544 11.0647 12.471 11.2052 11.9877 11.7285C11.5835 12.1594 10.2846 13.3857 10.2846 15.7384C10.2846 18.1248 12.0132 20.3443 12.2355 20.6406L12.2366 20.6428L12.2377 20.6438C12.246 20.6545 12.329 20.7762 12.4431 20.9409C12.5572 21.1056 12.7133 21.3268 12.9085 21.5895C13.2989 22.1147 13.8463 22.8057 14.5368 23.546C15.9179 25.0266 17.8689 26.7085 20.2857 27.6506V27.6516C22.2577 28.4186 23.4569 28.7317 24.2879 28.8421C25.119 28.9525 25.5856 28.8524 25.9833 28.8171H25.9844C26.507 28.7685 27.1971 28.4744 27.8549 28.0543C28.5127 27.6342 29.1276 27.0953 29.3594 26.4514C29.5608 25.8941 29.6626 25.3773 29.6987 24.966C29.7167 24.7604 29.718 24.5811 29.7065 24.4318C29.6949 24.2824 29.6874 24.1734 29.6094 24.0422H29.6083C29.507 23.8728 29.354 23.7755 29.1875 23.6853C29.0212 23.5952 28.8285 23.5099 28.6016 23.398H28.6004C28.3645 23.2806 27.6815 22.9471 26.9989 22.6221C26.3159 22.2969 25.6662 21.9906 25.3996 21.8941H25.3984C25.1797 21.8163 24.96 21.7374 24.7031 21.7668C24.4463 21.7962 24.2017 21.9628 24.019 22.2326C23.7395 22.6451 22.8363 23.7008 22.5714 23.9987V23.9997H22.5703C22.4612 24.1227 22.3982 24.1538 22.3226 24.163C22.2469 24.1721 22.1173 24.1496 21.9096 24.0487L21.9118 24.0509C21.6418 23.9165 21.1823 23.7515 20.5458 23.4154C19.9093 23.0793 19.1131 22.5812 18.2455 21.8169C16.9059 20.6368 15.9829 19.1601 15.7188 18.7123V18.7112C15.6128 18.5331 15.6243 18.467 15.6518 18.3935C15.6791 18.3207 15.7618 18.225 15.875 18.1128L15.8772 18.1106C16.1147 17.8798 16.367 17.5491 16.5904 17.2923L16.5915 17.2912V17.2901C16.8428 16.9963 16.9381 16.7714 17.0904 16.474L17.0915 16.4729V16.4718C17.2891 16.0758 17.1849 15.688 17.0536 15.425C17.0395 15.396 16.9557 15.1982 16.8493 14.9407C16.7427 14.6826 16.6055 14.3494 16.4598 13.9951C16.1685 13.2866 15.8414 12.4957 15.6306 12.0332C15.4421 11.6176 15.2274 11.3656 14.9844 11.2268C14.7422 11.0885 14.5019 11.0812 14.3348 11.0756H14.3326C14.0526 11.0641 13.7409 11.0647 13.4319 11.0647ZM13.4319 11.6218C13.7416 11.6218 14.0479 11.6219 14.3103 11.6327H14.3114H14.3125C14.478 11.6383 14.5849 11.6447 14.6953 11.7078C14.8057 11.7709 14.9493 11.9079 15.1083 12.2584V12.2595C15.31 12.7023 15.6388 13.4955 15.9297 14.203C16.0751 14.5567 16.212 14.889 16.3192 15.1486C16.4264 15.4082 16.4963 15.5791 16.5391 15.6665V15.6676L16.5402 15.6687C16.6386 15.8659 16.6857 16.0123 16.5781 16.228C16.4183 16.5404 16.3593 16.6918 16.1529 16.9332L16.1551 16.9321C15.914 17.2094 15.6546 17.5407 15.4721 17.7177L15.471 17.7188L15.4699 17.7199C15.3521 17.8365 15.1983 17.9804 15.115 18.2031C15.0316 18.4257 15.0589 18.7128 15.2243 18.9909C15.5036 19.4643 16.4453 20.9819 17.8627 22.2304C18.7674 23.0273 19.6046 23.5519 20.2734 23.9051C20.9425 24.2584 21.4606 24.4514 21.6529 24.5471H21.654L21.6551 24.5482C21.9131 24.6735 22.1505 24.7452 22.3929 24.7158C22.6349 24.6864 22.84 24.5468 23.0022 24.3643C23.2803 24.0515 24.1579 23.0395 24.4966 22.5394C24.6231 22.3528 24.6877 22.3289 24.769 22.3196C24.8502 22.3103 24.9967 22.3444 25.202 22.4176C25.3641 22.4763 26.0685 22.7992 26.7478 23.1227C27.4277 23.4464 28.1148 23.7814 28.3415 23.8942H28.3426C28.5816 24.0121 28.7763 24.0995 28.9096 24.1717C29.0429 24.2439 29.1013 24.299 29.115 24.3218C29.0941 24.2867 29.1287 24.3642 29.1373 24.4742C29.1458 24.5842 29.1442 24.737 29.1283 24.9182C29.0966 25.2804 29.0046 25.7562 28.8203 26.2664C28.6664 26.6939 28.1415 27.2059 27.5424 27.5885C26.9433 27.9711 26.2602 28.2315 25.9308 28.2621C25.481 28.3021 25.1243 28.3902 24.3649 28.2893C23.605 28.1884 22.4452 27.8911 20.4978 27.1337C18.2009 26.2383 16.3052 24.6141 14.9598 23.1717C14.2871 22.4504 13.7516 21.7757 13.3705 21.263C13.18 21.0067 13.0282 20.7912 12.9163 20.6297C12.8044 20.4682 12.7442 20.3735 12.6942 20.3087C12.4556 19.9908 10.856 17.8548 10.856 15.7384C10.856 13.5782 11.9578 12.5855 12.4096 12.1039V12.1028H12.4107C12.775 11.7074 13.1985 11.6218 13.4319 11.6218Z" fill="#2D9CDB"/>
</svg>
