<svg width="40" height="40" viewBox="0 0 40 40" fill="none" xmlns="http://www.w3.org/2000/svg">
<path d="M8 0.474609C3.58892 0.474609 0 3.97381 0 8.27461V31.6746C0 35.9754 3.58892 39.4746 8 39.4746H32C36.4111 39.4746 40 35.9754 40 31.6746V8.27461C40 3.97321 36.4111 0.474609 32 0.474609H8ZM8 1.67461H32C35.7323 1.67461 38.7692 4.63561 38.7692 8.27461V31.6746C38.7692 35.3136 35.7323 38.2746 32 38.2746H8C4.26769 38.2746 1.23077 35.3136 1.23077 31.6746V8.27461C1.23077 4.63561 4.26769 1.67461 8 1.67461ZM9.74639 3.47344C6.06885 3.47344 3.07692 6.39057 3.07692 9.97617V29.9719C3.07692 33.5575 6.06885 36.4734 9.74639 36.4734H30.2536C33.9311 36.4734 36.9231 33.5575 36.9231 29.9719V18.7746C36.9231 18.6084 36.7852 18.4746 36.6154 18.4746C36.4455 18.4746 36.3077 18.609 36.3077 18.7746V29.9719C36.3077 33.2263 33.5914 35.8746 30.2536 35.8746H9.74639C6.40855 35.8746 3.69231 33.2263 3.69231 29.9719V9.97617C3.69231 6.72177 6.40855 4.07344 9.74639 4.07344H30.4615C30.6314 4.07344 30.7692 3.93904 30.7692 3.77344C30.7692 3.60784 30.6314 3.47344 30.4615 3.47344H9.74639ZM19.7163 10.6992C17.2677 10.6992 16.969 10.7057 16.0096 10.7531C15.1118 10.7909 14.4106 10.9206 13.7392 11.175C13.0715 11.4258 12.5514 11.7554 12.0505 12.2414C11.5489 12.7274 11.2086 13.2323 10.9495 13.8785C10.6874 14.5289 10.5526 15.2071 10.5132 16.0945C10.472 17.0101 10.4579 17.3185 10.4579 19.6699C10.4579 22.0429 10.4658 22.3329 10.5144 23.2617C10.5532 24.1323 10.6874 24.8115 10.9495 25.4625C11.2086 26.1093 11.5489 26.6136 12.0505 27.0996C12.5514 27.5856 13.0715 27.9146 13.7392 28.166C14.41 28.4198 15.1113 28.5501 16.0288 28.5891C16.9735 28.6287 17.2911 28.6418 19.7163 28.6418C22.165 28.6418 22.4643 28.6353 23.4231 28.5879C24.3209 28.5501 25.0209 28.4204 25.6923 28.166C26.3594 27.9152 26.8807 27.5856 27.3822 27.0996C27.8837 26.6136 28.2229 26.1087 28.482 25.4625C28.7441 24.8121 28.8789 24.1332 28.9183 23.2488C28.9595 22.3332 28.9748 22.0249 28.9748 19.6711C28.9748 17.2975 28.9675 17.0075 28.9183 16.0793C28.8795 15.2081 28.7441 14.5295 28.482 13.8785C28.2229 13.2317 27.8837 12.7262 27.3822 12.2402C26.8807 11.7542 26.3606 11.4264 25.6935 11.175C25.0227 10.9212 24.3214 10.791 23.4038 10.752C22.4592 10.7124 22.1416 10.6992 19.7163 10.6992ZM19.7175 11.2992C22.1292 11.2992 22.4446 11.3118 23.3978 11.352C24.2268 11.3874 24.8662 11.506 25.4724 11.7352C26.0564 11.9548 26.512 12.2414 26.9495 12.6656C27.3877 13.0904 27.6846 13.5313 27.9111 14.0965V14.0977C28.1474 14.6845 28.2684 15.3023 28.3041 16.1063C28.3527 17.0231 28.3606 17.3113 28.3606 19.6699C28.36 22.0117 28.3453 22.3167 28.3041 23.2359C28.2678 24.0381 28.1468 24.6577 27.9099 25.2445C27.6834 25.8091 27.3871 26.2506 26.9483 26.6754C26.5108 27.0996 26.0546 27.3863 25.47 27.6059C24.8632 27.8351 24.2244 27.9543 23.3942 27.9891C22.4472 28.0359 22.1502 28.0418 19.7163 28.0418C17.304 28.0418 16.9887 28.0293 16.0361 27.9891C15.2071 27.9537 14.5677 27.8351 13.9615 27.6059C13.3769 27.3857 12.9219 27.0996 12.4844 26.6754C12.0462 26.2506 11.7499 25.8092 11.5228 25.2434C11.2865 24.656 11.1655 24.0376 11.1298 23.2336C11.0818 22.3162 11.0745 22.0285 11.0745 19.6699C11.0745 17.3311 11.0886 17.0267 11.1298 16.1051C11.1661 15.3029 11.2871 14.6827 11.524 14.0965C11.7505 13.5313 12.0462 13.0898 12.4844 12.6656C12.9219 12.2414 13.3781 11.9548 13.9627 11.7352C14.5695 11.506 15.2095 11.3868 16.0397 11.352C16.9874 11.3052 17.2837 11.2992 19.7175 11.2992ZM36.6154 12.4746C36.4455 12.4746 36.3077 12.6084 36.3077 12.7746V13.9746C36.3077 14.1402 36.4455 14.2746 36.6154 14.2746C36.7852 14.2746 36.9231 14.1402 36.9231 13.9746V12.7746C36.9231 12.609 36.7852 12.4746 36.6154 12.4746ZM24.6574 13.3992C23.8968 13.3992 23.2776 13.9995 23.2776 14.7375C23.2776 15.4755 23.8968 16.0758 24.6574 16.0758C25.4181 16.0758 26.0373 15.4755 26.0373 14.7375C26.0379 13.9995 25.4187 13.3992 24.6574 13.3992ZM24.6574 13.9992C25.079 13.9992 25.4219 14.3301 25.4219 14.7375C25.4225 15.1449 25.0796 15.4758 24.6574 15.4758C24.2359 15.4758 23.893 15.1449 23.893 14.7375C23.893 14.3301 24.2359 13.9992 24.6574 13.9992ZM36.6154 14.8746C36.4455 14.8746 36.3077 15.009 36.3077 15.1746V17.5746C36.3077 17.7402 36.4455 17.8746 36.6154 17.8746C36.7852 17.8746 36.9231 17.7402 36.9231 17.5746V15.1746C36.9231 15.0084 36.7852 14.8746 36.6154 14.8746ZM19.7091 14.9145C17.0033 14.9145 14.8017 17.0473 14.8017 19.6699C14.8017 22.2925 17.0033 24.4266 19.7091 24.4266C22.415 24.4266 24.6166 22.2925 24.6166 19.6699C24.6166 17.0479 22.415 14.9145 19.7091 14.9145ZM19.7091 15.5145C22.0759 15.5145 24.0012 17.3779 24.0012 19.6699C24.0012 21.9619 22.0759 23.8266 19.7091 23.8266C17.3424 23.8266 15.4171 21.9619 15.4171 19.6699C15.4171 17.3785 17.3424 15.5145 19.7091 15.5145Z" fill="#3498DB"/>
</svg>
