<svg width="40" height="40" viewBox="0 0 40 40" fill="none" xmlns="http://www.w3.org/2000/svg">
<path d="M8.48485 0.474609C3.80582 0.474609 0 4.18529 0 8.74734V31.2019C0 35.7639 3.80582 39.4746 8.48485 39.4746H31.5152C36.1942 39.4746 40 35.7639 40 31.2019V8.74734C40 4.18529 36.1942 0.474609 31.5152 0.474609H8.48485ZM8.48485 1.65643H31.5152C35.5392 1.65643 38.7879 4.82393 38.7879 8.74734V31.2019C38.7879 35.1253 35.5392 38.2928 31.5152 38.2928H8.48485C4.46084 38.2928 1.21212 35.1253 1.21212 31.2019V8.74734C1.21212 4.82393 4.46084 1.65643 8.48485 1.65643ZM10 3.42916C6.1544 3.42916 3.0303 6.47515 3.0303 10.2246V29.7246C3.0303 33.4741 6.1544 36.5201 10 36.5201H30C33.8456 36.5201 36.9697 33.4741 36.9697 29.7246V19.6792C36.9712 19.5726 36.9138 19.4735 36.8194 19.4198C36.725 19.3661 36.6083 19.3661 36.5139 19.4198C36.4195 19.4735 36.3621 19.5726 36.3636 19.6792V29.7246C36.3636 33.1547 33.518 35.9292 30 35.9292H10C6.48196 35.9292 3.63636 33.1547 3.63636 29.7246V10.2246C3.63636 6.79452 6.48196 4.02006 10 4.02006H30C30.1923 4.02006 30.3844 4.03168 30.5788 4.04891C30.6867 4.05841 30.7915 4.01109 30.8539 3.92477C30.9162 3.83845 30.9266 3.72625 30.8811 3.63045C30.8356 3.53464 30.7411 3.46979 30.6333 3.46031C30.4277 3.4421 30.2174 3.42916 30 3.42916H10ZM36.6619 12.2882C36.5816 12.2894 36.505 12.3217 36.449 12.378C36.3931 12.4342 36.3624 12.5099 36.3636 12.5882V13.7701C36.3621 13.8766 36.4195 13.9757 36.5139 14.0294C36.6083 14.0832 36.725 14.0832 36.8194 14.0294C36.9138 13.9757 36.9712 13.8766 36.9697 13.7701V12.5882C36.971 12.5083 36.939 12.4312 36.881 12.3747C36.823 12.3181 36.7439 12.2869 36.6619 12.2882ZM9.62003 13.4735C9.2148 13.4735 8.90313 13.5775 8.71094 13.7874C8.51874 13.9973 8.48485 14.258 8.48485 14.4706C8.48485 14.8804 8.63246 15.9158 9.1643 17.4136C9.69614 18.9115 10.6148 20.8365 12.1638 22.8922C14.4249 25.8928 17.4146 27.6553 20.1385 27.6553C20.5736 27.6553 20.9876 27.5532 21.3056 27.3044C21.6237 27.0556 21.8194 26.6559 21.8194 26.178V23.4797V23.4785C21.8191 23.2749 21.8839 23.1578 21.9839 23.0711C22.0839 22.9845 22.2355 22.9292 22.4242 22.9292C22.6548 22.9292 22.8701 22.9961 23.2374 23.2765C23.6048 23.5569 24.0969 24.0487 24.7928 24.8358H24.7917C25.5902 25.7395 26.0572 26.4065 26.4666 26.8786C26.8761 27.3506 27.2949 27.6564 27.8575 27.6564H30.303C30.6294 27.6564 30.9208 27.5932 31.1482 27.4256C31.3756 27.258 31.5045 26.983 31.514 26.6904C31.5188 26.5394 31.4953 26.3872 31.4548 26.2253L31.4512 26.2126L31.4477 26.1999C31.2341 25.5912 30.5017 24.3381 29.4437 23.0954C28.8709 22.4229 28.2974 21.7461 28.0575 21.4115L28.0563 21.4103L28.0552 21.408C27.8986 21.1961 27.8755 21.1027 27.8788 21.0318C27.8818 20.9624 27.9375 20.8401 28.0705 20.6198L28.0765 20.6094C28.077 20.6085 28.0805 20.6019 28.0824 20.599L28.0942 20.5817C28.1136 20.5522 28.1459 20.5055 28.1866 20.4455C28.2679 20.3255 28.3866 20.1504 28.531 19.9365C28.8198 19.5088 29.2106 18.9233 29.6129 18.2908C30.0153 17.6582 30.4294 16.9787 30.7647 16.3611C31.0971 15.7488 31.3503 15.2131 31.4441 14.7857C31.4935 14.628 31.5187 14.4726 31.514 14.3264V14.3252V14.3229C31.5038 14.0933 31.4027 13.8545 31.2026 13.6985C31.0026 13.5425 30.734 13.4746 30.4155 13.4746H27.9699C27.6008 13.4746 27.2953 13.5909 27.075 13.7678C26.8548 13.9446 26.72 14.1689 26.6252 14.3748V14.3725C26.6252 14.3725 25.2752 17.2367 23.6754 19.2002C23.5918 19.3028 23.03 19.9746 22.1212 19.9746C22.096 19.9746 22.0068 19.9628 21.9484 19.9181C21.89 19.8733 21.8182 19.7982 21.8182 19.5314V14.6899C21.8182 14.3505 21.786 14.0653 21.6205 13.8278C21.455 13.5902 21.1507 13.4746 20.8321 13.4746H16.6667C16.123 13.4746 15.7576 13.9208 15.7576 14.361C15.7576 14.6084 15.8978 14.8102 16.0369 14.945C16.176 15.0797 16.3232 15.1824 16.4571 15.3074C16.7251 15.5573 16.9682 15.8623 16.9673 16.6346V19.9192C16.9673 20.3003 16.9187 20.5042 16.8939 20.5494C16.8816 20.5719 16.8903 20.558 16.8916 20.5574C16.8928 20.5569 16.8716 20.5644 16.8182 20.5644C16.7711 20.5644 16.542 20.4695 16.2725 20.1985C16.003 19.9276 15.6858 19.5115 15.3598 18.9821C14.7078 17.9233 14.0135 16.4109 13.473 14.6507L13.4718 14.6472L13.4706 14.6426C13.3463 14.2748 13.217 13.9877 12.9877 13.7758C12.7584 13.5639 12.4415 13.4735 12.0869 13.4735H9.62003ZM9.62003 14.0644H12.0869C12.3529 14.0644 12.466 14.1081 12.5698 14.204C12.6737 14.3 12.7816 14.4953 12.8942 14.8284C13.4478 16.6289 14.1562 18.176 14.8402 19.2868C15.1828 19.843 15.518 20.29 15.8369 20.6105C16.1557 20.931 16.451 21.1553 16.8182 21.1553C16.9199 21.1553 17.0332 21.1456 17.1484 21.0929C17.2637 21.0403 17.3658 20.9407 17.4278 20.8275C17.5518 20.6011 17.5734 20.3347 17.5734 19.9192V16.6346C17.5744 15.724 17.2138 15.1953 16.8762 14.8803C16.7074 14.7228 16.5512 14.6102 16.4631 14.5249C16.375 14.4395 16.3636 14.4161 16.3636 14.361C16.3636 14.2209 16.4515 14.0655 16.6667 14.0655H20.8321C21.0355 14.0655 21.0733 14.0952 21.1186 14.1602C21.1639 14.2251 21.2121 14.3994 21.2121 14.6899V19.5314C21.2121 19.9295 21.3676 20.2236 21.5743 20.382C21.7811 20.5404 21.9949 20.5655 22.1212 20.5655C23.3336 20.5655 24.0544 19.6832 24.1489 19.5672C25.823 17.5125 27.1768 14.6183 27.1768 14.6183V14.6172H27.178C27.2511 14.4585 27.3417 14.3196 27.4597 14.2248C27.5778 14.13 27.7221 14.0655 27.9699 14.0655H30.4155C30.6443 14.0655 30.7665 14.1154 30.8239 14.1602C30.8809 14.2047 30.9045 14.2498 30.9091 14.3483C30.9111 14.4236 30.8981 14.5179 30.8641 14.623L30.8594 14.6368L30.857 14.6507C30.7936 14.9471 30.5532 15.487 30.2284 16.0852C29.9037 16.6834 29.496 17.3534 29.098 17.9791C28.7 18.6048 28.3116 19.1868 28.0244 19.6122C27.8808 19.8249 27.7621 19.9976 27.6799 20.1189C27.6388 20.1795 27.6067 20.2276 27.584 20.262C27.5727 20.2792 27.5642 20.2918 27.5556 20.3058C27.5534 20.3094 27.551 20.3165 27.5485 20.3208C27.5461 20.325 27.5442 20.3271 27.5402 20.3347C27.5363 20.3424 27.5203 20.3803 27.5201 20.3809C27.5201 20.3809 27.5183 20.3928 27.5177 20.397C27.3999 20.5923 27.2844 20.7713 27.2739 21.0052C27.2626 21.2519 27.3708 21.4916 27.5639 21.7531V21.7543C27.8422 22.142 28.4056 22.8015 28.9773 23.4727C29.988 24.6599 30.7136 25.946 30.8688 26.3823C30.8974 26.5016 30.9114 26.6001 30.9091 26.672C30.904 26.8291 30.8634 26.895 30.7824 26.9547C30.7014 27.0144 30.5457 27.0655 30.303 27.0655H27.8575C27.4934 27.0655 27.302 26.9272 26.9294 26.4977C26.5569 26.0682 26.0694 25.3765 25.2509 24.4503C24.545 23.6519 24.0409 23.1392 23.6115 22.8114C23.182 22.4836 22.7997 22.3382 22.4242 22.3382C22.113 22.3382 21.8108 22.4305 21.5814 22.6291C21.3521 22.8277 21.2129 23.1331 21.2133 23.4797V26.178C21.2133 26.5126 21.1045 26.7049 20.9268 26.8439C20.7491 26.9829 20.4743 27.0644 20.1385 27.0644C17.6866 27.0644 14.8292 25.4309 12.6527 22.5425C11.1429 20.5387 10.251 18.6667 9.73721 17.2197C9.22344 15.7728 9.0909 14.7156 9.0909 14.4706C9.0909 14.3222 9.11712 14.2312 9.1631 14.1809C9.20909 14.1307 9.31373 14.0644 9.62002 14.0644H9.62003ZM36.6619 15.2427C36.5816 15.2439 36.505 15.2762 36.449 15.3325C36.3931 15.3888 36.3624 15.4644 36.3636 15.5428V17.9064C36.3621 18.013 36.4195 18.1121 36.5139 18.1658C36.6083 18.2195 36.725 18.2195 36.8194 18.1658C36.9138 18.1121 36.9712 18.013 36.9697 17.9064V15.5428C36.971 15.4628 36.939 15.3858 36.881 15.3292C36.823 15.2727 36.7439 15.2415 36.6619 15.2427Z" fill="#3498DB"/>
</svg>
