<svg width="22" height="22" viewBox="0 0 22 22" fill="none" xmlns="http://www.w3.org/2000/svg">
<path d="M10.9999 6.59361C8.56138 6.59361 6.59341 8.56158 6.59341 11.0001C6.59341 13.4385 8.56138 15.4065 10.9999 15.4065C13.4383 15.4065 15.4063 13.4385 15.4063 11.0001C15.4063 8.56158 13.4383 6.59361 10.9999 6.59361ZM10.9999 13.8639C9.4229 13.8639 8.13599 12.577 8.13599 11.0001C8.13599 9.4231 9.4229 8.13619 10.9999 8.13619C12.5768 8.13619 13.8637 9.4231 13.8637 11.0001C13.8637 12.577 12.5768 13.8639 10.9999 13.8639ZM15.5868 5.38619C15.0174 5.38619 14.5577 5.84595 14.5577 6.41529C14.5577 6.98462 15.0174 7.44439 15.5868 7.44439C16.1561 7.44439 16.6159 6.98677 16.6159 6.41529C16.616 6.2801 16.5895 6.1462 16.5379 6.02127C16.4862 5.89633 16.4104 5.78282 16.3148 5.68722C16.2192 5.59163 16.1057 5.51583 15.9808 5.46418C15.8559 5.41252 15.722 5.38602 15.5868 5.38619ZM19.5893 11.0001C19.5893 9.81412 19.6001 8.63892 19.5335 7.45513C19.4669 6.08013 19.1532 4.85982 18.1477 3.85435C17.1401 2.84673 15.9219 2.53521 14.5469 2.46861C13.361 2.40201 12.1858 2.41275 11.002 2.41275C9.81607 2.41275 8.64087 2.40201 7.45708 2.46861C6.08208 2.53521 4.86177 2.84888 3.8563 3.85435C2.84869 4.86197 2.53716 6.08013 2.47056 7.45513C2.40396 8.64107 2.4147 9.81626 2.4147 11.0001C2.4147 12.1838 2.40396 13.3612 2.47056 14.545C2.53716 15.92 2.85083 17.1403 3.8563 18.1458C4.86392 19.1534 6.08208 19.4649 7.45708 19.5315C8.64302 19.5981 9.81822 19.5874 11.002 19.5874C12.1879 19.5874 13.3631 19.5981 14.5469 19.5315C15.9219 19.4649 17.1422 19.1512 18.1477 18.1458C19.1553 17.1381 19.4669 15.92 19.5335 14.545C19.6022 13.3612 19.5893 12.186 19.5893 11.0001ZM17.6987 16.0661C17.5419 16.4571 17.3528 16.7493 17.0499 17.0501C16.7469 17.353 16.4569 17.542 16.0659 17.6989C14.9358 18.1479 12.2524 18.0469 10.9999 18.0469C9.74732 18.0469 7.06177 18.1479 5.93169 17.701C5.54068 17.5442 5.24849 17.3551 4.94771 17.0522C4.64478 16.7493 4.45572 16.4592 4.29888 16.0682C3.85201 14.936 3.95298 12.2526 3.95298 11.0001C3.95298 9.74751 3.85201 7.06197 4.29888 5.93189C4.45572 5.54087 4.64478 5.24869 4.94771 4.9479C5.25064 4.64712 5.54068 4.45591 5.93169 4.29908C7.06177 3.8522 9.74732 3.95318 10.9999 3.95318C12.2524 3.95318 14.9379 3.8522 16.068 4.29908C16.459 4.45591 16.7512 4.64498 17.052 4.9479C17.3549 5.25083 17.544 5.54087 17.7008 5.93189C18.1477 7.06197 18.0467 9.74751 18.0467 11.0001C18.0467 12.2526 18.1477 14.936 17.6987 16.0661Z" fill="black"/>
</svg>
