<svg width="23" height="23" viewBox="0 0 23 23" fill="none" xmlns="http://www.w3.org/2000/svg">
<path d="M19.8487 12.9959C19.9408 12.4905 19.9902 11.9739 19.9902 11.4573C19.9902 10.3118 19.7656 9.2 19.3232 8.15557C18.8964 7.14482 18.2832 6.2374 17.5038 5.45801C16.7309 4.68316 15.8148 4.066 14.8063 3.64092C13.7596 3.19844 12.65 2.97383 11.5045 2.97383C10.9654 2.97383 10.4241 3.02549 9.89855 3.12656C9.1713 2.74118 8.36096 2.53918 7.53791 2.53809C6.19699 2.53809 4.93468 3.06143 3.98683 4.00928C3.51911 4.4746 3.14827 5.02802 2.89575 5.63754C2.64322 6.24706 2.51403 6.90059 2.51564 7.56035C2.51564 8.41387 2.73576 9.25391 3.14679 9.99512C3.06369 10.4758 3.01876 10.9677 3.01876 11.4573C3.01876 12.6028 3.24337 13.7146 3.68585 14.7591C4.11261 15.7698 4.72355 16.6772 5.50294 17.4566C6.28234 18.236 7.18976 18.847 8.2005 19.2737C9.24718 19.7162 10.3568 19.9408 11.5023 19.9408C12.0009 19.9408 12.4995 19.8959 12.9892 19.8083C13.7416 20.2328 14.5906 20.4597 15.4599 20.4597C16.8008 20.4597 18.0631 19.9386 19.011 18.9885C19.9611 18.0406 20.4821 16.7783 20.4821 15.4374C20.4844 14.5839 20.2643 13.7416 19.8487 12.9959ZM17.8699 17.8475C17.2253 18.4943 16.374 18.8447 15.4621 18.8447C14.8759 18.8447 14.2986 18.692 13.7865 18.4022L13.2812 18.117L12.7084 18.2181C12.3086 18.2899 11.9043 18.3259 11.5045 18.3259C10.5746 18.3259 9.67843 18.1439 8.82941 17.7846C8.01408 17.4409 7.2796 16.9468 6.64621 16.3134C6.0192 15.6885 5.51955 14.9478 5.17501 14.1324C4.81564 13.2856 4.63595 12.3895 4.63595 11.4596C4.63595 11.0688 4.67189 10.6689 4.73927 10.2736L4.8381 9.70986L4.55959 9.20898C4.27867 8.70488 4.13101 8.13744 4.13058 7.56035C4.13058 6.64844 4.48322 5.79717 5.12785 5.15254C5.77472 4.50791 6.62599 4.15527 7.53791 4.15527C8.09723 4.15678 8.64773 4.29479 9.14162 4.55732L9.64474 4.82236L10.2018 4.71455C10.6263 4.63369 11.0643 4.59102 11.5045 4.59102C12.4344 4.59102 13.3306 4.77295 14.1774 5.13008C14.9972 5.47598 15.7294 5.97012 16.3606 6.60127C16.994 7.23242 17.4881 7.96689 17.834 8.78447C18.1934 9.63125 18.3731 10.5274 18.3731 11.4573C18.3731 11.8706 18.3349 12.2884 18.2585 12.7039L18.1529 13.2767L18.436 13.7843C18.719 14.2896 18.8672 14.8624 18.8672 15.4396C18.8672 16.3538 18.5146 17.2028 17.8699 17.8475ZM13.1037 10.4713L11.1182 10.0311C10.3635 9.85811 9.49425 9.63125 9.49425 8.91924C9.49425 8.20723 10.1029 7.70859 11.2035 7.70859C13.4204 7.70859 13.2183 9.23145 14.3189 9.23145C14.8984 9.23145 15.406 8.89004 15.406 8.30605C15.406 6.94043 13.2183 5.91396 11.363 5.91396C9.34826 5.91396 7.20324 6.76973 7.20324 9.04727C7.20324 10.1434 7.59406 11.3113 9.7548 11.8526L12.4366 12.522C13.2475 12.7219 13.4519 13.1778 13.4519 13.5911C13.4519 14.2762 12.7713 14.9455 11.5382 14.9455C9.13039 14.9455 9.46505 13.0925 8.1758 13.0925C7.5963 13.0925 7.17628 13.4923 7.17628 14.0605C7.17628 15.1701 8.52394 16.6525 11.5382 16.6525C14.4065 16.6525 15.8282 15.2712 15.8282 13.4182C15.8282 12.2255 15.2779 10.9564 13.1037 10.4713Z" fill="black"/>
</svg>
