<svg width="18" height="16" viewBox="0 0 18 16" fill="none" xmlns="http://www.w3.org/2000/svg">
<path d="M17.067 0.47943C16.8947 0.330732 16.6851 0.231985 16.4608 0.193882C16.2364 0.155778 16.006 0.179769 15.7943 0.263258L1.37579 5.92771C1.12451 6.02647 0.911958 6.20393 0.769934 6.43354C0.627909 6.66315 0.564046 6.93258 0.587896 7.20151C0.611746 7.47044 0.722029 7.72443 0.902245 7.92546C1.08246 8.1265 1.32292 8.26378 1.58766 8.31677L5.25008 9.04943V13.6239C5.24986 13.8712 5.32304 14.113 5.46035 14.3187C5.59766 14.5244 5.79293 14.6847 6.02142 14.7794C6.24991 14.874 6.50135 14.8988 6.74389 14.8504C6.98644 14.8021 7.20918 14.6828 7.38391 14.5078L9.41079 12.481L12.487 15.188C12.7135 15.3892 13.0058 15.5004 13.3087 15.5008C13.4403 15.5007 13.5712 15.4799 13.6964 15.4394C13.903 15.3738 14.0888 15.2553 14.2353 15.0955C14.3818 14.9358 14.4838 14.7404 14.5312 14.5289L17.4698 1.70607C17.521 1.48433 17.5105 1.25281 17.4395 1.0366C17.3685 0.820386 17.2396 0.627731 17.067 0.479508V0.47943ZM5.73024 7.8706L1.83297 7.09115L12.7456 2.80396L5.73024 7.8706ZM6.50008 13.6233V9.91951L8.4704 11.6533L6.50008 13.6233ZM13.3127 14.2496L6.87586 8.58506L16.145 1.89076L13.3127 14.2496Z" fill="black"/>
</svg>
