<svg width="20" height="20" viewBox="0 0 20 20" fill="none" xmlns="http://www.w3.org/2000/svg">
<path d="M6.24956 17.3436C4.47499 17.3439 2.72943 16.8934 1.17659 16.0345C1.08632 15.9842 1.01516 15.9056 0.974141 15.8107C0.933117 15.7159 0.92452 15.6102 0.949683 15.51C0.974846 15.4098 1.03236 15.3207 1.11332 15.2565C1.19427 15.1923 1.29414 15.1566 1.39745 15.155C3.03091 15.1322 4.63082 14.688 6.04221 13.8654C4.41496 12.5882 3.20187 10.8582 2.55563 8.89313C1.90938 6.92805 1.85886 4.81571 2.41042 2.82198C2.43453 2.73504 2.48322 2.6569 2.55065 2.59695C2.61808 2.537 2.70138 2.49779 2.79055 2.48401C2.87972 2.47024 2.97096 2.48249 3.05334 2.5193C3.13572 2.5561 3.20572 2.6159 3.25495 2.69151C3.96003 3.78037 4.88051 4.7134 5.95973 5.43315C7.03895 6.15291 8.25406 6.64416 9.53026 6.87667C9.52953 6.84714 9.52917 6.81758 9.52917 6.788C9.5292 6.01838 9.77629 5.2691 10.2341 4.65043C10.6919 4.03176 11.3361 3.57638 12.0721 3.35131C12.8081 3.12624 13.5969 3.14337 14.3224 3.40017C15.0479 3.65697 15.6718 4.13989 16.1023 4.77784C16.9529 4.72871 17.7931 4.56621 18.6007 4.29464C18.6943 4.26323 18.7954 4.26214 18.8896 4.29154C18.9838 4.32093 19.0663 4.3793 19.1254 4.45833C19.1845 4.53737 19.2171 4.63303 19.2186 4.7317C19.2202 4.83037 19.1905 4.927 19.1339 5.00784C18.4668 5.96322 17.6444 6.80013 16.7009 7.48386C16.5454 10.1504 15.3765 12.6567 13.4336 14.4896C11.4907 16.3226 8.92063 17.3436 6.24956 17.3436ZM3.21057 15.91C4.19014 16.2384 5.21642 16.4059 6.24956 16.4061C8.71818 16.4061 11.0905 15.4483 12.8672 13.7343C14.6438 12.0204 15.6861 9.68394 15.7748 7.21691C15.7774 7.14387 15.797 7.07245 15.8321 7.00834C15.8672 6.94423 15.9168 6.88922 15.9769 6.84769C16.5242 6.46989 17.0302 6.03537 17.4863 5.55136C16.9503 5.65188 16.4072 5.71047 15.8621 5.72659C15.7743 5.72901 15.6874 5.70675 15.6116 5.66234C15.5357 5.61793 15.4738 5.55315 15.4328 5.47534C15.12 4.9263 14.6217 4.50673 14.0274 4.29191C13.4331 4.0771 12.7817 4.08111 12.19 4.30323C11.5984 4.52535 11.1053 4.95103 10.7992 5.50388C10.4932 6.05674 10.3941 6.70058 10.5199 7.31987C10.5378 7.39424 10.5373 7.47188 10.5184 7.54602C10.4995 7.62015 10.4628 7.68854 10.4114 7.74522C10.36 7.80189 10.2955 7.84514 10.2235 7.87118C10.1516 7.89722 10.0744 7.90528 9.99862 7.89464C7.28465 7.57276 4.80558 6.19807 3.0951 4.06652C2.79955 5.86178 3.02312 7.70413 3.73949 9.3766C4.45586 11.0491 5.63519 12.482 7.13862 13.5068C7.20172 13.5498 7.25335 13.6075 7.28904 13.675C7.32472 13.7425 7.34338 13.8177 7.34338 13.8941C7.34338 13.9705 7.32472 14.0457 7.28904 14.1132C7.25335 14.1807 7.20172 14.2384 7.13862 14.2814C5.9553 15.0889 4.61801 15.6433 3.21049 15.91H3.21057Z" fill="black"/>
</svg>
