<svg width="24" height="24" viewBox="0 0 24 24" fill="none" xmlns="http://www.w3.org/2000/svg">
<path d="M6.8115 3.75C6.00051 3.75316 5.22364 4.07673 4.65018 4.65018C4.07673 5.22364 3.75316 6.00051 3.75 6.8115V17.1885C3.75316 17.9995 4.07673 18.7764 4.65018 19.3498C5.22364 19.9233 6.00051 20.2468 6.8115 20.25H17.1885C17.9995 20.2468 18.7764 19.9233 19.3498 19.3498C19.9233 18.7764 20.2468 17.9995 20.25 17.1885V6.8115C20.2468 6.00051 19.9233 5.22364 19.3498 4.65018C18.7764 4.07673 17.9995 3.75316 17.1885 3.75H6.8115ZM6.8115 5.25H17.1885C18.0585 5.25 18.75 5.9415 18.75 6.8115V17.1885C18.75 18.0585 18.0585 18.75 17.1885 18.75H6.8115C6.60608 18.7513 6.40245 18.7118 6.21241 18.6338C6.02238 18.5558 5.84972 18.4408 5.70447 18.2955C5.55921 18.1503 5.44424 17.9776 5.36622 17.7876C5.28821 17.5976 5.24871 17.3939 5.25 17.1885V6.8115C5.25 5.9415 5.9415 5.25 6.8115 5.25ZM11.7892 9.1725C11.238 9.16725 10.7693 9.1725 10.506 9.3015C10.3298 9.387 10.1955 9.57975 10.2773 9.58875C10.38 9.60375 10.611 9.65325 10.7347 9.8205C10.8922 10.0342 10.887 10.518 10.887 10.518C10.887 10.518 10.9747 11.8478 10.6725 12.015C10.4647 12.129 10.1805 11.8973 9.5655 10.8398C9.252 10.2952 9.015 9.6945 9.015 9.6945C9.015 9.6945 8.97 9.58275 8.889 9.52425C8.78925 9.4515 8.65125 9.4275 8.65125 9.4275L7.1835 9.4365C7.1835 9.4365 6.96375 9.4455 6.885 9.53925C6.8115 9.627 6.879 9.7995 6.879 9.7995C6.879 9.7995 8.02725 12.486 9.32775 13.8397C10.5203 15.0825 11.874 15 11.874 15H12.489C12.489 15 12.6735 14.9797 12.7673 14.88C12.8558 14.7863 12.8527 14.61 12.8527 14.61C12.8527 14.61 12.8407 13.7872 13.2218 13.6642C13.5997 13.5465 14.0798 14.4607 14.5928 14.8125C14.9828 15.0787 15.2782 15.0203 15.2782 15.0203L16.65 15C16.65 15 17.3648 14.9558 17.025 14.3903C16.9988 14.3468 16.8285 13.9748 16.0087 13.2128C15.147 12.4163 15.2618 12.5452 16.2983 11.1652C16.9283 10.3245 17.1803 9.8115 17.1007 9.58875C17.0258 9.381 16.5623 9.4365 16.5623 9.4365L15.018 9.4455C15.018 9.4455 14.904 9.4305 14.8193 9.48075C14.761 9.52403 14.7145 9.58129 14.6842 9.64725C14.6842 9.64725 14.4382 10.2975 14.1127 10.8517C13.4272 12.0173 13.149 12.0817 13.038 12.009C12.777 11.8387 12.8415 11.3288 12.8415 10.9688C12.8415 9.83475 13.014 9.366 12.5077 9.24375C12.3405 9.2025 12.2175 9.17625 11.79 9.1725H11.7892Z" fill="black"/>
</svg>
