<svg width="22" height="22" viewBox="0 0 22 22" fill="none" xmlns="http://www.w3.org/2000/svg">
<path d="M20.625 10.9396C20.625 10.8924 20.625 10.8387 20.6229 10.7764C20.6207 10.6023 20.6164 10.4068 20.6121 10.1984C20.5949 9.59902 20.5648 9.00176 20.5176 8.43887C20.4531 7.66328 20.3586 7.0166 20.2297 6.53105C20.0937 6.02434 19.827 5.56221 19.4564 5.19085C19.0858 4.81949 18.6242 4.55191 18.1178 4.41484C17.5098 4.25156 16.3195 4.15059 14.6437 4.08828C13.8467 4.0582 12.9937 4.03887 12.1408 4.02812C11.8422 4.02383 11.565 4.02168 11.3158 4.01953H10.6842C10.435 4.02168 10.1578 4.02383 9.85918 4.02812C9.00625 4.03887 8.15332 4.0582 7.35625 4.08828C5.68047 4.15273 4.48809 4.25371 3.88223 4.41484C3.37563 4.55157 2.91386 4.81904 2.5432 5.19045C2.17254 5.56187 1.90601 6.02418 1.77031 6.53105C1.63926 7.0166 1.54688 7.66328 1.48242 8.43887C1.43516 9.00176 1.40508 9.59902 1.38789 10.1984C1.38145 10.4068 1.3793 10.6023 1.37715 10.7764C1.37715 10.8387 1.375 10.8924 1.375 10.9396V11.06C1.375 11.1072 1.375 11.1609 1.37715 11.2232C1.3793 11.3973 1.38359 11.5928 1.38789 11.8012C1.40508 12.4006 1.43516 12.9979 1.48242 13.5607C1.54688 14.3363 1.64141 14.983 1.77031 15.4686C2.04531 16.4977 2.85312 17.3098 3.88223 17.5848C4.48809 17.748 5.68047 17.849 7.35625 17.9113C8.15332 17.9414 9.00625 17.9607 9.85918 17.9715C10.1578 17.9758 10.435 17.9779 10.6842 17.9801H11.3158C11.565 17.9779 11.8422 17.9758 12.1408 17.9715C12.9937 17.9607 13.8467 17.9414 14.6437 17.9113C16.3195 17.8469 17.5119 17.7459 18.1178 17.5848C19.1469 17.3098 19.9547 16.4998 20.2297 15.4686C20.3607 14.983 20.4531 14.3363 20.5176 13.5607C20.5648 12.9979 20.5949 12.4006 20.6121 11.8012C20.6186 11.5928 20.6207 11.3973 20.6229 11.2232C20.6229 11.1609 20.625 11.1072 20.625 11.06V10.9396ZM19.0781 11.0514C19.0781 11.0965 19.0781 11.1459 19.076 11.2039C19.0738 11.3715 19.0695 11.5563 19.0652 11.7561C19.0502 12.3275 19.0201 12.899 18.975 13.4297C18.917 14.1215 18.8354 14.6887 18.7344 15.0689C18.6012 15.5652 18.2102 15.9584 17.716 16.0895C17.2648 16.2098 16.1283 16.3064 14.5836 16.3645C13.8016 16.3945 12.9594 16.4139 12.1193 16.4246C11.825 16.4289 11.5521 16.4311 11.3072 16.4311H10.6928L9.88066 16.4246C9.04063 16.4139 8.20059 16.3945 7.41641 16.3645C5.87168 16.3043 4.73301 16.2098 4.28398 16.0895C3.78984 15.9563 3.39883 15.5652 3.26562 15.0689C3.16465 14.6887 3.08301 14.1215 3.025 13.4297C2.97988 12.899 2.95195 12.3275 2.93477 11.7561C2.92832 11.5563 2.92617 11.3693 2.92402 11.2039C2.92402 11.1459 2.92188 11.0943 2.92188 11.0514V10.9482C2.92188 10.9031 2.92188 10.8537 2.92402 10.7957C2.92617 10.6281 2.93047 10.4434 2.93477 10.2436C2.9498 9.67207 2.97988 9.10059 3.025 8.56992C3.08301 7.87812 3.16465 7.31094 3.26562 6.93066C3.39883 6.43438 3.78984 6.04121 4.28398 5.91016C4.73516 5.78984 5.87168 5.69316 7.41641 5.63516C8.19844 5.60508 9.04063 5.58574 9.88066 5.575C10.175 5.5707 10.4479 5.56855 10.6928 5.56855H11.3072L12.1193 5.575C12.9594 5.58574 13.7994 5.60508 14.5836 5.63516C16.1283 5.69531 17.267 5.78984 17.716 5.91016C18.2102 6.04336 18.6012 6.43438 18.7344 6.93066C18.8354 7.31094 18.917 7.87812 18.975 8.56992C19.0201 9.10059 19.048 9.67207 19.0652 10.2436C19.0717 10.4434 19.0738 10.6303 19.076 10.7957C19.076 10.8537 19.0781 10.9053 19.0781 10.9482V11.0514ZM9.08789 13.8787L14.0723 10.9783L9.08789 8.1209V13.8787Z" fill="black"/>
</svg>
