<svg width="60" height="60" viewBox="0 0 60 60" fill="none" xmlns="http://www.w3.org/2000/svg">
<path d="M52.8 15.5998H44.4L40 10.7998H25V14.3998H37.8L42 19.1998H52.8V50H12V27.5L8.4 27.5998V50C8.4 52.75 9.85 53.9998 12.6 53.9998H52.5C55.25 53.9998 56.4 52.75 56.4 50V19.7998C56.4 17.0498 55.55 15.5998 52.8 15.5998ZM21.6 35C21.6 40.7998 27 45.5998 32.4 45.5998C39.3 45.5998 43.2 40.1998 43.2 35C43.2 28.1 38.4 23.9998 32.4 23.9998C27 23.9998 21.6 28.7998 21.6 35ZM32.5 27.5C36.625 27.5 40 30.875 40 35C40 39.125 36.625 42.5 32.5 42.5C28.375 42.5 25 39.125 25 35C25 30.875 28.375 27.5 32.5 27.5ZM12 14.3998H20V10.7998H12V2.5H8.4V10.7998H0V14.3998H8.4V22.5H12V14.3998Z" fill="#CCCCCC"/>
</svg>
