<svg width="23" height="22" viewBox="0 0 23 22" fill="none" xmlns="http://www.w3.org/2000/svg">
<path d="M2.09497 10.9532V3.48745C2.09497 3.16123 2.15942 2.83822 2.28464 2.53699C2.40985 2.23575 2.59335 1.96223 2.8246 1.73213C3.05585 1.50203 3.33029 1.31989 3.63214 1.19618C3.934 1.07247 4.25732 1.00963 4.58354 1.01126L19.4407 1.08307C20.0953 1.08634 20.7219 1.34867 21.1836 1.81269C21.6453 2.27671 21.9045 2.90467 21.9045 3.55926V18.4164C21.9045 18.7426 21.84 19.0656 21.7148 19.3669C21.5896 19.6681 21.4061 19.9416 21.1749 20.1717C20.9436 20.4018 20.6692 20.584 20.3673 20.7077C20.0655 20.8314 19.7421 20.8942 19.4159 20.8926L4.55878 20.822C3.9042 20.8188 3.27755 20.5564 2.81585 20.0924C2.35415 19.6284 2.09496 19.0004 2.09497 18.3458V15.9526" stroke="black" stroke-linecap="round" stroke-linejoin="round"/>
<path d="M2.09497 6.04785H21.9045" stroke="black" stroke-linecap="round" stroke-linejoin="round"/>
<path d="M9.52368 17.1905L13.238 13.4762L9.52368 9.76318" stroke="black" stroke-linecap="round" stroke-linejoin="round"/>
<path d="M11.9998 13.4766H0.856934" stroke="black" stroke-linecap="round" stroke-linejoin="round"/>
</svg>
