<svg width="50" height="50" viewBox="0 0 50 50" fill="none" xmlns="http://www.w3.org/2000/svg">
<path d="M21.0526 0C19.9704 0 19.079 0.891463 19.079 1.97368V19.079H1.97368C0.891463 19.079 0 19.9704 0 21.0526V28.9474C0 30.0296 0.891463 30.921 1.97368 30.921H19.079V48.0263C19.079 49.1085 19.9704 50 21.0526 50H28.9474C30.0296 50 30.921 49.1085 30.921 48.0263V30.921H48.0263C49.1085 30.921 50 30.0296 50 28.9474V21.0526C50 19.9704 49.1085 19.079 48.0263 19.079H30.921V1.97368C30.921 0.891463 30.0296 0 28.9474 0H21.0526ZM21.0526 1.31579H28.9474C29.3191 1.31579 29.6053 1.60196 29.6053 1.97368V20.3947H48.0263C48.398 20.3947 48.6842 20.6809 48.6842 21.0526V28.9474C48.6842 29.3191 48.398 29.6053 48.0263 29.6053H29.6053V48.0263C29.6053 48.398 29.3191 48.6842 28.9474 48.6842H21.0526C20.6809 48.6842 20.3947 48.398 20.3947 48.0263V29.6053H1.97368C1.60196 29.6053 1.31579 29.3191 1.31579 28.9474V21.0526C1.31579 20.6809 1.60196 20.3947 1.97368 20.3947H20.3947V1.97368C20.3947 1.60196 20.6809 1.31579 21.0526 1.31579ZM27.2975 3.28433C27.2102 3.2857 27.1271 3.32165 27.0664 3.38431C27.0057 3.44696 26.9724 3.53118 26.9737 3.61842V22.6974C26.9737 22.879 27.121 23.0263 27.3026 23.0263H34.5395C34.6581 23.028 34.7685 22.9657 34.8282 22.8632C34.8881 22.7607 34.8881 22.634 34.8282 22.5315C34.7685 22.429 34.6581 22.3668 34.5395 22.3684H27.6315V3.61842C27.6329 3.52939 27.5982 3.4436 27.5353 3.38065C27.4723 3.31768 27.3865 3.28293 27.2975 3.28433ZM36.5132 22.3685C36.3946 22.3668 36.2842 22.429 36.2244 22.5315C36.1646 22.634 36.1646 22.7607 36.2244 22.8632C36.2842 22.9657 36.3946 23.028 36.5132 23.0263H43.0921C43.2107 23.028 43.3211 22.9657 43.3809 22.8632C43.4407 22.7607 43.4407 22.634 43.3809 22.5315C43.3211 22.429 43.2107 22.3668 43.0921 22.3685H36.5132ZM45.0658 22.3685C44.9471 22.3668 44.8368 22.429 44.777 22.5315C44.7172 22.634 44.7172 22.7607 44.777 22.8632C44.8368 22.9657 44.9471 23.028 45.0658 23.0263H46.3815C46.5002 23.028 46.6106 22.9657 46.6704 22.8632C46.7301 22.7607 46.7301 22.634 46.6704 22.5315C46.6106 22.429 46.5002 22.3668 46.3815 22.3685H45.0658Z" fill="#CCCCCC"/>
</svg>
