<svg width="23" height="32" viewBox="0 0 23 32" fill="none" xmlns="http://www.w3.org/2000/svg">
<g clip-path="url(#clip0)">
<path d="M11.3775 31.28L10.6773 30.5088C10.2397 30.0802 0 18.2538 0 11.1408C0 4.97052 5.0761 0 11.3775 0C17.6788 0 22.7549 4.97052 22.7549 11.1408C22.7549 18.2538 12.5152 30.0802 12.0776 30.5945L11.3775 31.28ZM11.3775 1.71397C6.03882 1.71397 1.75038 5.91321 1.75038 11.1408C1.75038 16.6256 9.10198 25.8809 11.3775 28.6233C13.6529 25.8809 21.0046 16.6256 21.0046 11.1408C21.0046 5.91321 16.7161 1.71397 11.3775 1.71397Z" fill="#3498DB"/>
<path d="M11.3779 15.4259C8.92737 15.4259 7.00195 13.5404 7.00195 11.1409C7.00195 8.74133 8.92737 6.85596 11.3779 6.85596C13.8284 6.85596 15.7539 8.74133 15.7539 11.1409C15.7539 13.5404 13.8284 15.4259 11.3779 15.4259ZM11.3779 8.56994C9.89009 8.56994 8.75234 9.68402 8.75234 11.1409C8.75234 12.5978 9.89009 13.7118 11.3779 13.7118C12.8657 13.7118 14.0035 12.5978 14.0035 11.1409C14.0035 9.68402 12.8657 8.56994 11.3779 8.56994Z" fill="#3498DB"/>
</g>
<defs>
<clipPath id="clip0">
<rect width="23" height="31.28" fill="white"/>
</clipPath>
</defs>
</svg>
