<svg width="22" height="22" viewBox="0 0 22 22" fill="none" xmlns="http://www.w3.org/2000/svg">
<path fill-rule="evenodd" clip-rule="evenodd" d="M15.8246 1.99533C16.1254 1.69473 16.5332 1.52588 16.9585 1.52588C17.3838 1.52588 17.7916 1.69473 18.0924 1.99533L20.4629 4.36583C20.7635 4.66664 20.9324 5.07449 20.9324 5.49974C20.9324 5.925 20.7635 6.33285 20.4629 6.63366L17.9027 9.19391L17.8917 9.20583L7.966 18.6796C7.78467 18.8529 7.56521 18.9813 7.32525 19.0545L2.2625 20.5945C2.14342 20.6305 2.01681 20.6335 1.89615 20.6033C1.77549 20.573 1.66531 20.5105 1.57734 20.4226C1.48938 20.3346 1.42693 20.2244 1.39665 20.1038C1.36637 19.9831 1.3694 19.8565 1.40541 19.7374L2.939 14.6957C3.01943 14.4319 3.16655 14.1932 3.36616 14.0027L13.2698 4.54916L15.8246 1.99533ZM13.7392 6.00208L4.31583 14.9973C4.28717 15.0245 4.26602 15.0586 4.25441 15.0963L3.09575 18.9042L6.92466 17.7391C6.95904 17.7285 6.99044 17.71 7.01633 17.685L16.4332 8.69616L13.7382 6.00208H13.7392ZM17.4168 7.73641L19.4912 5.66291C19.5126 5.64162 19.5295 5.61633 19.5411 5.58849C19.5526 5.56065 19.5586 5.5308 19.5586 5.50066C19.5586 5.47052 19.5526 5.44067 19.5411 5.41283C19.5295 5.38499 19.5126 5.3597 19.4912 5.33841L17.1207 2.96791C17.0995 2.94657 17.0742 2.92964 17.0463 2.91808C17.0185 2.90653 16.9886 2.90059 16.9585 2.90059C16.9284 2.90059 16.8985 2.90653 16.8707 2.91808C16.8428 2.92964 16.8175 2.94657 16.7962 2.96791L14.7227 5.04141L17.4168 7.73641Z" fill="#BDBDBD"/>
</svg>
